<svg width="30" height="30" viewBox="0 0 30 30" fill="none" xmlns="http://www.w3.org/2000/svg">
<path d="M19.2076 2C19.4081 2.00004 19.6004 2.07918 19.7424 2.22006L24.0288 6.48406C24.1708 6.62538 24.2506 6.81704 24.2506 7.01687C24.2506 7.2167 24.1708 7.40836 24.0288 7.54968L10.1 21.4043C10.0049 21.4988 9.88616 21.5664 9.75606 21.6002L3.95606 23.1075C3.82821 23.1406 3.69387 23.14 3.56636 23.1055C3.43885 23.0711 3.32261 23.0041 3.22919 22.9111C3.13576 22.8182 3.06839 22.7026 3.03377 22.5757C2.99915 22.4489 2.99847 22.3152 3.03182 22.1881L4.54697 16.4183C4.58094 16.2889 4.64892 16.1708 4.74394 16.0762L18.6712 2.22006C18.7417 2.15012 18.8253 2.09469 18.9174 2.05693C19.0094 2.01917 19.108 1.99982 19.2076 2ZM3.13636 25.7391C2.83498 25.7391 2.54594 25.8582 2.33283 26.0702C2.11972 26.2822 2 26.5698 2 26.8696C2 27.1694 2.11972 27.4569 2.33283 27.6689C2.54594 27.8809 2.83498 28 3.13636 28H25.8636C26.165 28 26.4541 27.8809 26.6672 27.6689C26.8803 27.4569 27 27.1694 27 26.8696C27 26.5698 26.8803 26.2822 26.6672 26.0702C26.4541 25.8582 26.165 25.7391 25.8636 25.7391H3.13636Z" fill="#333333"/>
</svg>
