<svg width="30" height="30" viewBox="0 0 30 30" fill="none" xmlns="http://www.w3.org/2000/svg">
<path d="M21.25 5.25C21.5361 5.25 21.7448 5.33469 21.9561 5.5459C22.1669 5.7569 22.2503 5.96415 22.25 6.24805V22.4688C22.25 22.8581 22.1307 23.079 21.8047 23.292C21.4804 23.5039 21.218 23.5311 20.8408 23.3711L15.5908 21.1211L15 20.8682L14.4092 21.1211L9.16309 23.3691C8.78366 23.5304 8.51994 23.5034 8.19434 23.291C7.8697 23.0792 7.75 22.8593 7.75 22.4688V6.25C7.75 5.96397 7.83458 5.75688 8.04492 5.54688C8.23041 5.3617 8.41355 5.27316 8.64844 5.25391L8.75195 5.25H21.25Z" stroke="#333333" stroke-width="3"/>
</svg>
