<svg width="30" height="30" viewBox="0 0 30 30" fill="none" xmlns="http://www.w3.org/2000/svg">
<path d="M24.9161 16.3012C24.68 18.1012 23.9585 19.8029 22.8288 21.224C21.6991 22.645 20.2039 23.7317 18.5035 24.3675C16.8032 25.0034 14.9618 25.1644 13.1769 24.8332C11.392 24.5021 9.73091 23.6913 8.37177 22.4879C7.01263 21.2844 6.00672 19.7337 5.46192 18.0021C4.91712 16.2704 4.85398 14.4231 5.27928 12.6582C5.70457 10.8934 6.60225 9.27762 7.87605 7.98419C9.14985 6.69076 10.7517 5.76848 12.5098 5.31624C17.3836 4.06624 22.4286 6.57499 24.2911 11.25" stroke="#333333" stroke-width="3" stroke-linecap="round" stroke-linejoin="round"/>
<path d="M25 5V11.25H18.75" stroke="#333333" stroke-width="3" stroke-linecap="round" stroke-linejoin="round"/>
</svg>
