<svg width="30" height="30" viewBox="0 0 30 30" fill="none" xmlns="http://www.w3.org/2000/svg">
<path d="M18.75 18.75L26.25 26.25M12.5 21.25C11.3509 21.25 10.2131 21.0237 9.15152 20.5839C8.08992 20.1442 7.12533 19.4997 6.31282 18.6872C5.5003 17.8747 4.85578 16.9101 4.41605 15.8485C3.97633 14.7869 3.75 13.6491 3.75 12.5C3.75 11.3509 3.97633 10.2131 4.41605 9.15152C4.85578 8.08992 5.5003 7.12533 6.31282 6.31282C7.12533 5.5003 8.08992 4.85578 9.15152 4.41605C10.2131 3.97633 11.3509 3.75 12.5 3.75C14.8206 3.75 17.0462 4.67187 18.6872 6.31282C20.3281 7.95376 21.25 10.1794 21.25 12.5C21.25 14.8206 20.3281 17.0462 18.6872 18.6872C17.0462 20.3281 14.8206 21.25 12.5 21.25Z" stroke="#333333" stroke-width="3" stroke-linecap="round" stroke-linejoin="round"/>
</svg>
