<svg width="30" height="30" viewBox="0 0 30 30" fill="none" xmlns="http://www.w3.org/2000/svg">
<path d="M26.7625 14.475L15.5125 3.225C15.0438 2.7601 14.4102 2.49947 13.75 2.5H5C4.33696 2.5 3.70107 2.76339 3.23223 3.23223C2.76339 3.70107 2.5 4.33696 2.5 5V13.75C2.49974 14.0799 2.56477 14.4066 2.69135 14.7112C2.81792 15.0159 3.00354 15.2924 3.2375 15.525L14.4875 26.775C14.9562 27.2399 15.5898 27.5005 16.25 27.5C16.912 27.4972 17.5458 27.232 18.0125 26.7625L26.7625 18.0125C27.232 17.5458 27.4972 16.912 27.5 16.25C27.5003 15.9201 27.4352 15.5934 27.3087 15.2888C27.1821 14.9842 26.9965 14.7076 26.7625 14.475ZM16.25 25L5 13.75V5H13.75L25 16.25M8.125 6.25C8.49584 6.25 8.85835 6.35997 9.16669 6.566C9.47504 6.77202 9.71536 7.06486 9.85727 7.40747C9.99919 7.75008 10.0363 8.12708 9.96397 8.49079C9.89163 8.85451 9.71305 9.1886 9.45083 9.45083C9.1886 9.71305 8.85451 9.89163 8.49079 9.96397C8.12708 10.0363 7.75008 9.99919 7.40747 9.85727C7.06486 9.71536 6.77202 9.47504 6.566 9.16669C6.35997 8.85835 6.25 8.49584 6.25 8.125C6.25 7.62772 6.44754 7.15081 6.79918 6.79918C7.15081 6.44754 7.62772 6.25 8.125 6.25Z" fill="#333333"/>
</svg>
