<svg width="25" height="26" viewBox="0 0 25 26" fill="none" xmlns="http://www.w3.org/2000/svg">
<path d="M17.2076 1.20202e-06C17.4081 4.35842e-05 17.6004 0.0791783 17.7424 0.220059L22.0288 4.48406C22.1708 4.62538 22.2506 4.81704 22.2506 5.01687C22.2506 5.2167 22.1708 5.40836 22.0288 5.54968L8.1 19.4043C8.00486 19.4988 7.88616 19.5664 7.75606 19.6002L1.95606 21.1075C1.82821 21.1406 1.69387 21.14 1.56636 21.1055C1.43885 21.0711 1.32261 21.0041 1.22919 20.9111C1.13576 20.8182 1.06839 20.7026 1.03377 20.5757C0.999146 20.4489 0.998474 20.3152 1.03182 20.1881L2.54697 14.4183C2.58094 14.2889 2.64892 14.1708 2.74394 14.0762L16.6712 0.220059C16.7417 0.15012 16.8253 0.0946865 16.9174 0.0569274C17.0094 0.0191683 17.108 -0.000175669 17.2076 1.20202e-06ZM1.13636 23.7391C0.834981 23.7391 0.545943 23.8582 0.332833 24.0702C0.119724 24.2822 0 24.5698 0 24.8696C0 25.1694 0.119724 25.4569 0.332833 25.6689C0.545943 25.8809 0.834981 26 1.13636 26H23.8636C24.165 26 24.4541 25.8809 24.6672 25.6689C24.8803 25.4569 25 25.1694 25 24.8696C25 24.5698 24.8803 24.2822 24.6672 24.0702C24.4541 23.8582 24.165 23.7391 23.8636 23.7391H1.13636Z" fill="#333333"/>
</svg>
