<svg width="30" height="30" viewBox="0 0 30 30" fill="none" xmlns="http://www.w3.org/2000/svg">
<mask id="mask0_251_418" style="mask-type:luminance" maskUnits="userSpaceOnUse" x="0" y="0" width="30" height="30">
<path d="M0 0H30V30H0V0Z" fill="white"/>
</mask>
<g mask="url(#mask0_251_418)">
<path fill-rule="evenodd" clip-rule="evenodd" d="M2.8125 20.625H8.4375L13.2863 25.4738C13.657 25.8447 14.1295 26.0972 14.6439 26.1996C15.1582 26.3019 15.6914 26.2494 16.1759 26.0487C16.6604 25.848 17.0746 25.5081 17.3659 25.072C17.6572 24.6359 17.8126 24.1232 17.8125 23.5988V6.40125C17.8126 5.8768 17.6572 5.3641 17.3659 4.928C17.0746 4.4919 16.6604 4.152 16.1759 3.95128C15.6914 3.75057 15.1582 3.69806 14.6439 3.80041C14.1295 3.90276 13.657 4.15535 13.2863 4.52625L8.4375 9.375H2.8125C2.06658 9.375 1.35121 9.67132 0.823762 10.1988C0.296316 10.7262 0 11.4416 0 12.1875L0 17.8125C0 18.5584 0.296316 19.2738 0.823762 19.8012C1.35121 20.3287 2.06658 20.625 2.8125 20.625ZM26.5538 24.5681C26.0569 25.1663 25.1606 25.1625 24.6113 24.6131C24.0638 24.0638 24.0713 23.1769 24.5531 22.5694C26.2634 20.4176 27.1923 17.7487 27.1875 15C27.1919 12.2519 26.263 9.58381 24.5531 7.4325C24.0713 6.82313 24.0638 5.93813 24.6131 5.38875C25.1606 4.83938 26.0569 4.83563 26.5538 5.43375C28.7854 8.12164 30.0048 11.5064 30 15C30 18.6375 28.7063 21.9713 26.5538 24.5681ZM22.545 20.565C22.0838 21.1894 21.1838 21.1838 20.6344 20.6344C20.085 20.0869 20.1019 19.2019 20.5219 18.5494C21.2019 17.4905 21.5631 16.2584 21.5625 15C21.5625 13.6931 21.18 12.4763 20.5219 11.4525C20.1019 10.8 20.085 9.915 20.6344 9.36563C21.1838 8.81625 22.0838 8.81063 22.5469 9.43688C23.6963 10.9931 24.375 12.9169 24.375 15C24.3778 17.0033 23.7362 18.9543 22.545 20.565Z" fill="#333333"/>
</g>
</svg>
