<svg width="30" height="30" viewBox="0 0 30 30" fill="none" xmlns="http://www.w3.org/2000/svg">
<path d="M27 3L3 27" stroke="#333333" stroke-width="3" stroke-linecap="round"/>
<path d="M17.8125 22.9353C17.8123 23.5907 17.618 24.2313 17.2539 24.7762C16.8896 25.3212 16.3713 25.746 15.7656 25.9969C15.16 26.2476 14.4935 26.3132 13.8506 26.1853C13.2078 26.0574 12.6168 25.7425 12.1533 25.2791L10.4971 23.6228L12.4854 21.6346L14.1436 23.2908C14.2139 23.3608 14.303 23.4083 14.4004 23.4275C14.4978 23.4467 14.5988 23.4373 14.6904 23.3992C14.7821 23.3611 14.8599 23.2962 14.915 23.2137C14.9701 23.1312 14.9999 23.0345 15 22.9353V19.1209L17.8125 16.3084V22.9353ZM27.4639 6.65605C29.1129 9.11465 30.0044 12.0165 30 14.9998C30 18.6373 28.7062 21.9713 26.5537 24.5682C26.0568 25.1662 25.1607 25.1605 24.6113 24.6131C24.0638 24.0637 24.0709 23.1766 24.5527 22.5691C26.263 20.4173 27.1923 17.7485 27.1875 14.9998C27.1913 12.7655 26.5779 10.5842 25.4297 8.69023L27.4639 6.65605ZM13.8506 3.81425C14.4934 3.68642 15.1601 3.75201 15.7656 4.00273C16.3713 4.25358 16.8896 4.6784 17.2539 5.22343C17.6182 5.76847 17.8124 6.40968 17.8125 7.06523V12.0662L15 14.8787V7.06523C15 6.96596 14.9701 6.86851 14.915 6.78593C14.86 6.70356 14.7819 6.63943 14.6904 6.60136C14.5988 6.56325 14.4978 6.55289 14.4004 6.57207C14.3031 6.59123 14.2139 6.6389 14.1436 6.70879L9.4873 11.3621C8.96036 11.8897 8.24567 12.1866 7.5 12.1873H3.75C3.5014 12.1873 3.26272 12.286 3.08691 12.4617C2.91114 12.6375 2.81255 12.8762 2.8125 13.1248V16.8748C2.8125 17.1234 2.91116 17.3621 3.08691 17.5379C3.26273 17.7137 3.50136 17.8123 3.75 17.8123H7.5C8.24563 17.813 8.96037 18.11 9.4873 18.6375L10.3643 19.5135L8.37598 21.5018L7.5 20.6248H3.75C2.75544 20.6248 1.80189 20.2294 1.09863 19.5262C0.39543 18.8229 0 17.8693 0 16.8748V13.1248C5.03357e-05 12.1303 0.395416 11.1767 1.09863 10.4734C1.80189 9.77023 2.75548 9.3748 3.75 9.3748H7.5L12.1533 4.72148C12.6168 4.25808 13.2078 3.94216 13.8506 3.81425ZM23.3613 10.7586C24.0082 12.0329 24.375 13.4748 24.375 14.9998C24.3778 17.0031 23.7361 18.9546 22.5449 20.5652C22.0837 21.1893 21.1841 21.1836 20.6348 20.6346C20.0855 20.0853 20.1017 19.202 20.5215 18.5477C21.2012 17.4893 21.5628 16.2576 21.5625 14.9998C21.5625 14.2657 21.4422 13.5594 21.2197 12.9002L23.3613 10.7586Z" fill="#333333"/>
</svg>
